<?xml version="1.0" standalone="no"?>
<!DOCTYPE svg PUBLIC "-//W3C//DTD SVG 20010904//EN"
 "http://www.w3.org/TR/2001/REC-SVG-20010904/DTD/svg10.dtd">
<svg version="1.0" xmlns="http://www.w3.org/2000/svg"
 width="558.000000pt" height="558.000000pt" viewBox="0 0 558.000000 558.000000"
 preserveAspectRatio="xMidYMid meet">
<metadata>
Created by potrace 1.14, written by Peter Selinger 2001-2017
</metadata>
<g transform="translate(0.000000,558.000000) scale(0.100000,-0.100000)"
fill="#000000" stroke="none">
<path d="M1917 4779 c-205 -17 -396 -71 -531 -151 -41 -23 -104 -75 -147 -119
-131 -133 -205 -314 -245 -596 -21 -152 -15 -600 10 -733 85 -450 296 -673
716 -761 147 -30 372 -39 1048 -39 l623 0 -3 -292 c-3 -274 -4 -296 -24 -338
-29 -60 -88 -115 -147 -134 -87 -29 -410 -23 -1512 29 -286 14 -555 28 -598
31 l-77 7 0 -376 0 -376 33 -5 c72 -12 871 -62 1382 -88 138 -7 446 -12 685
-13 463 0 495 3 665 55 319 97 501 314 571 680 25 131 31 654 10 826 -27 222
-81 370 -185 508 -63 83 -87 104 -185 166 -96 60 -217 105 -356 132 -97 19
-156 21 -765 27 -734 8 -727 7 -803 76 -57 51 -82 111 -95 225 -19 173 10 325
77 398 33 37 109 71 183 82 40 6 424 10 941 10 l872 0 0 390 0 390 -1022 -1
c-563 -1 -1067 -5 -1121 -10z"/>
</g>
</svg>
