<?xml version="1.0" standalone="no"?>
<!DOCTYPE svg PUBLIC "-//W3C//DTD SVG 20010904//EN"
 "http://www.w3.org/TR/2001/REC-SVG-20010904/DTD/svg10.dtd">
<svg version="1.0" xmlns="http://www.w3.org/2000/svg"
 width="469.000000pt" height="469.000000pt" viewBox="0 0 469.000000 469.000000"
 preserveAspectRatio="xMidYMid meet">
<metadata>
Created by potrace 1.14, written by Peter Selinger 2001-2017
</metadata>
<g transform="translate(0.000000,469.000000) scale(0.100000,-0.100000)"
fill="#000000" stroke="none">
<path d="M1559 4326 c-2 -2 -33 -7 -69 -10 -112 -12 -271 -49 -345 -82 -17 -7
-42 -17 -56 -23 -129 -48 -300 -219 -360 -358 -32 -73 -42 -98 -44 -103 -30
-98 -51 -199 -65 -313 -10 -83 -16 -559 -7 -575 3 -4 7 -34 11 -67 27 -264
123 -487 264 -616 62 -56 166 -126 222 -148 88 -34 203 -70 242 -76 24 -3 50
-8 58 -10 59 -15 254 -19 880 -20 626 0 716 -2 721 -15 3 -8 5 -139 4 -291
l-1 -276 -28 -56 c-32 -67 -82 -111 -149 -133 -43 -14 -88 -16 -356 -10 -168
3 -349 8 -401 10 -52 3 -169 7 -260 11 -91 3 -201 8 -245 10 -234 12 -318 16
-400 20 -49 2 -148 7 -220 11 -71 4 -168 7 -214 8 l-83 1 -2 -373 c0 -204 1
-373 4 -373 12 -3 50 -7 125 -13 44 -3 105 -8 135 -10 30 -3 96 -7 145 -11 50
-3 117 -8 150 -10 33 -3 98 -7 145 -10 120 -6 275 -15 345 -20 33 -3 125 -7
205 -11 80 -3 177 -7 215 -9 308 -17 885 -23 1025 -11 334 28 590 165 721 385
24 41 44 77 44 80 1 3 6 15 11 26 26 46 61 182 78 295 26 169 26 692 0 823 -2
12 -9 48 -14 80 -33 176 -115 340 -231 455 -51 52 -172 132 -220 147 -13 4
-28 11 -34 15 -18 14 -144 49 -233 65 -142 24 -219 27 -832 29 l-585 2 -60 24
c-137 54 -185 159 -179 397 4 178 47 267 154 321 73 37 105 38 1023 37 l897 0
0 35 c1 55 1 576 1 668 l-1 82 -1064 0 c-585 -1 -1065 -2 -1067 -4z"/>
</g>
</svg>
